<svg width="14" height="14" viewBox="0 0 14 14" fill="none" xmlns="http://www.w3.org/2000/svg">
<g clip-path="url(#clip0_1_1599)">
<path d="M2.91667 8.74996H2.33333C2.02392 8.74996 1.72717 8.62704 1.50838 8.40825C1.28958 8.18946 1.16667 7.89271 1.16667 7.58329V2.33329C1.16667 2.02387 1.28958 1.72713 1.50838 1.50833C1.72717 1.28954 2.02392 1.16663 2.33333 1.16663H7.58333C7.89275 1.16663 8.1895 1.28954 8.40829 1.50833C8.62708 1.72713 8.75 2.02387 8.75 2.33329V2.91663M6.41667 5.24996H11.6667C12.311 5.24996 12.8333 5.77229 12.8333 6.41663V11.6666C12.8333 12.311 12.311 12.8333 11.6667 12.8333H6.41667C5.77234 12.8333 5.25 12.311 5.25 11.6666V6.41663C5.25 5.77229 5.77234 5.24996 6.41667 5.24996Z" stroke="#424242" stroke-opacity="0.4" stroke-width="1.16667" stroke-linecap="round" stroke-linejoin="round"/>
</g>
<defs>
<clipPath id="clip0_1_1599">
<rect width="14" height="14" fill="white"/>
</clipPath>
</defs>
</svg>
