<svg width="25" height="24" viewBox="0 0 25 24" fill="none" xmlns="http://www.w3.org/2000/svg">
<path d="M21 6.5V20.25C21 20.6296 20.9279 20.984 20.7837 21.3135C20.6394 21.6429 20.4411 21.9329 20.1887 22.1836C19.9363 22.4342 19.6406 22.6312 19.3017 22.7744C18.9627 22.9176 18.6058 22.9928 18.2308 23H5.76923C5.38702 23 5.03005 22.9284 4.69832 22.7852C4.36659 22.6419 4.07452 22.445 3.82212 22.1943C3.56971 21.9437 3.37139 21.6536 3.22716 21.3242C3.08293 20.9948 3.00721 20.6367 3 20.25V6.5H5.76923V5.125C5.76923 4.55924 5.8774 4.02572 6.09375 3.52441C6.3101 3.02311 6.60938 2.58626 6.99159 2.21387C7.3738 1.84147 7.8137 1.54785 8.3113 1.33301C8.80889 1.11816 9.34615 1.00716 9.92308 1C10.6731 1 11.369 1.1862 12.0108 1.55859C12.6526 1.1862 13.3413 1 14.0769 1C14.6466 1 15.1839 1.10742 15.6887 1.32227C16.1935 1.53711 16.6334 1.83431 17.0084 2.21387C17.3834 2.59342 17.6791 3.03027 17.8954 3.52441C18.1118 4.01855 18.2236 4.55208 18.2308 5.125V6.5H21ZM16.8462 5.125C16.8462 4.7526 16.774 4.39811 16.6298 4.06152C16.4856 3.72493 16.2873 3.4349 16.0349 3.19141C15.7825 2.94792 15.4868 2.75098 15.1478 2.60059C14.8089 2.4502 14.4519 2.375 14.0769 2.375C13.7524 2.375 13.4459 2.42871 13.1575 2.53613C13.3666 2.79395 13.5325 3.04818 13.655 3.29883C13.7776 3.54948 13.8678 3.80013 13.9255 4.05078C13.9832 4.30143 14.0228 4.55566 14.0445 4.81348C14.0661 5.07129 14.0769 5.34701 14.0769 5.64062V6.5H16.8462V5.125ZM7.15385 6.5H12.6923V5.125C12.6923 4.7526 12.6202 4.39811 12.476 4.06152C12.3317 3.72493 12.1334 3.4349 11.881 3.19141C11.6286 2.94792 11.3329 2.75098 10.994 2.60059C10.655 2.4502 10.2981 2.375 9.92308 2.375C9.54087 2.375 9.18389 2.44661 8.85216 2.58984C8.52043 2.73307 8.22837 2.93001 7.97596 3.18066C7.72356 3.43132 7.52524 3.72493 7.38101 4.06152C7.23678 4.39811 7.16106 4.7526 7.15385 5.125V6.5ZM15.8293 21.625C15.5841 21.1953 15.4615 20.737 15.4615 20.25V7.875H4.38462V20.25C4.38462 20.4434 4.42067 20.6224 4.49279 20.7871C4.5649 20.9518 4.66226 21.0951 4.78486 21.2168C4.90745 21.3385 5.05529 21.4388 5.22837 21.5176C5.40144 21.5964 5.58173 21.6322 5.76923 21.625H15.8293ZM19.6154 7.875H16.8462V20.25C16.8462 20.4434 16.8822 20.6224 16.9543 20.7871C17.0264 20.9518 17.1238 21.0951 17.2464 21.2168C17.369 21.3385 17.5168 21.4388 17.6899 21.5176C17.863 21.5964 18.0433 21.6322 18.2308 21.625C18.4255 21.625 18.6058 21.5892 18.7716 21.5176C18.9375 21.446 19.0817 21.3493 19.2043 21.2275C19.3269 21.1058 19.4279 20.959 19.5072 20.7871C19.5865 20.6152 19.6226 20.4362 19.6154 20.25V7.875Z" fill="#999999"/>
</svg>
