<svg width="25" height="24" viewBox="0 0 25 24" fill="none" xmlns="http://www.w3.org/2000/svg">
<path d="M3.125 22H21.125" stroke="#999999" stroke-width="1.5" stroke-linecap="round" stroke-linejoin="round"/>
<path d="M5.72498 8.38H4.125C3.575 8.38 3.125 8.83 3.125 9.38V18C3.125 18.55 3.575 19 4.125 19H5.72498C6.27498 19 6.72498 18.55 6.72498 18V9.38C6.72498 8.83 6.27498 8.38 5.72498 8.38Z" stroke="#999999" stroke-width="1.5" stroke-linecap="round" stroke-linejoin="round"/>
<path d="M12.925 5.19H11.325C10.775 5.19 10.325 5.64 10.325 6.19V18C10.325 18.55 10.775 19 11.325 19H12.925C13.475 19 13.925 18.55 13.925 18V6.19C13.925 5.64 13.475 5.19 12.925 5.19Z" stroke="#999999" stroke-width="1.5" stroke-linecap="round" stroke-linejoin="round"/>
<path d="M20.125 2H18.525C17.975 2 17.525 2.45 17.525 3V18C17.525 18.55 17.975 19 18.525 19H20.125C20.675 19 21.125 18.55 21.125 18V3C21.125 2.45 20.675 2 20.125 2Z" stroke="#999999" stroke-width="1.5" stroke-linecap="round" stroke-linejoin="round"/>
</svg>
