<svg width="24" height="22" viewBox="0 0 24 22" fill="none" xmlns="http://www.w3.org/2000/svg">
<path opacity="0.4" d="M9.13498 4.21666C8.36832 1.04499 3.3754 1.03583 2.60873 4.21666C2.15832 6.07749 3.39457 7.65416 4.4679 8.635C5.25373 9.34083 6.48998 9.34083 7.27582 8.635C8.34915 7.65416 9.57582 6.07749 9.13498 4.21666ZM5.9054 5.68333C5.37832 5.68333 4.94707 5.27083 4.94707 4.76666C4.94707 4.26249 5.36873 3.84999 5.89582 3.84999H5.9054C6.44207 3.84999 6.86373 4.26249 6.86373 4.76666C6.86373 5.27083 6.44207 5.68333 5.9054 5.68333Z" fill="#999999"/>
<path d="M6.86375 4.76667C6.86375 5.27084 6.44208 5.68334 5.90542 5.68334C5.37833 5.68334 4.94708 5.27084 4.94708 4.76667C4.94708 4.26251 5.36875 3.85001 5.89583 3.85001H5.90542C6.44208 3.85001 6.86375 4.26251 6.86375 4.76667Z" fill="#999999"/>
<path opacity="0.4" d="M21.6221 15.2167C20.8554 12.045 15.8433 12.0358 15.0671 15.2167C14.6167 17.0775 15.8529 18.6542 16.9358 19.635C17.7217 20.3408 18.9675 20.3408 19.7533 19.635C20.8362 18.6542 22.0725 17.0775 21.6221 15.2167ZM18.3829 16.6833C17.8558 16.6833 17.4246 16.2708 17.4246 15.7667C17.4246 15.2625 17.8462 14.85 18.3733 14.85H18.3829C18.91 14.85 19.3412 15.2625 19.3412 15.7667C19.3412 16.2708 18.91 16.6833 18.3829 16.6833Z" fill="#999999"/>
<path d="M19.3412 15.7667C19.3412 16.2708 18.91 16.6833 18.3829 16.6833C17.8558 16.6833 17.4246 16.2708 17.4246 15.7667C17.4246 15.2625 17.8462 14.85 18.3733 14.85H18.3829C18.91 14.85 19.3412 15.2625 19.3412 15.7667Z" fill="#999999"/>
<path d="M12.125 18.1042H9.55669C8.44502 18.1042 7.47711 17.4625 7.09377 16.4725C6.70086 15.4825 6.98836 14.3917 7.82211 13.6858L15.4792 7.27834C15.9392 6.89334 15.9488 6.37084 15.8146 6.01334C15.6709 5.65584 15.3067 5.27084 14.6934 5.27084H12.125C11.7321 5.27084 11.4063 4.95918 11.4063 4.58334C11.4063 4.20751 11.7321 3.89584 12.125 3.89584H14.6934C15.805 3.89584 16.7729 4.53751 17.1563 5.52751C17.5492 6.51751 17.2617 7.60834 16.4279 8.31418L8.77086 14.7217C8.31086 15.1067 8.30127 15.6292 8.43544 15.9867C8.57919 16.3442 8.94336 16.7292 9.55669 16.7292H12.125C12.5179 16.7292 12.8438 17.0408 12.8438 17.4167C12.8438 17.7925 12.5179 18.1042 12.125 18.1042Z" fill="#999999"/>
</svg>
