<svg width="20" height="25" viewBox="0 0 20 25" fill="none" xmlns="http://www.w3.org/2000/svg">
<path d="M6 22.6238V2.96973C6 1.41297 5.55882 0.796753 4.43382 0.796753L1.56618 0.796753C0.441177 0.796753 0 1.41297 0 2.96973L0 22.6238C0 24.1805 0.441177 24.7968 1.56618 24.7968H4.41176C5.55882 24.7968 6 24.1805 6 22.6238Z" fill="#171817"/>
<path d="M20 22.6238V2.96973C20 1.41297 19.5572 0.796753 18.428 0.796753L15.572 0.796753C14.4428 0.796753 14 1.41297 14 2.96973V22.6238C14 24.1805 14.4428 24.7968 15.572 24.7968H18.428C19.5572 24.7968 20 24.1805 20 22.6238Z" fill="#171817"/>
</svg>
