<svg width="48" height="48" viewBox="0 0 48 48" fill="none" xmlns="http://www.w3.org/2000/svg">
<rect width="48" height="48" rx="24" fill="black"/>
<path fill-rule="evenodd" clip-rule="evenodd" d="M14.037 22.2933C20.2385 19.5914 24.3738 17.8102 26.4429 16.9495C32.3506 14.4923 33.5782 14.0655 34.3783 14.0514C34.5543 14.0483 34.9478 14.0919 35.2026 14.2987C35.4178 14.4733 35.4771 14.7092 35.5054 14.8748C35.5337 15.0404 35.569 15.4175 35.541 15.7123C35.2208 19.076 33.8356 27.2389 33.1308 31.0064C32.8326 32.6005 32.2455 33.135 31.677 33.1873C30.4417 33.301 29.5036 32.3709 28.3071 31.5866C26.4348 30.3593 25.3771 29.5953 23.5597 28.3977C21.4594 27.0136 22.8209 26.2529 24.0179 25.0097C24.3311 24.6843 29.7742 19.7335 29.8795 19.2844C29.8927 19.2282 29.9049 19.0188 29.7805 18.9083C29.6561 18.7977 29.4726 18.8355 29.3401 18.8656C29.1523 18.9082 26.1613 20.8852 20.367 24.7964C19.518 25.3794 18.7491 25.6635 18.0601 25.6486C17.3005 25.6322 15.8394 25.2191 14.7533 24.866C13.4211 24.433 12.3622 24.204 12.4544 23.4686C12.5025 23.0855 13.03 22.6937 14.037 22.2933Z" fill="white"/>
</svg>
