<svg width="294" height="294" viewBox="0 0 294 294" fill="none" xmlns="http://www.w3.org/2000/svg">
<circle cx="147" cy="147" r="147" fill="black"/>
<path fill-rule="evenodd" clip-rule="evenodd" d="M197.654 71.5933C197.654 90.1463 182.614 105.187 164.061 105.187C158.662 105.187 153.561 103.913 149.041 101.65L122.518 104.302C130.459 109.726 135.953 118.468 137.003 128.533L184.196 126.019C186.374 125.575 188.627 125.343 190.936 125.343C209.489 125.343 224.529 140.383 224.529 158.936C224.529 171.069 218.096 181.701 208.455 187.605L157.51 239.337C151.393 247.623 141.558 252.997 130.468 252.997C111.915 252.997 96.8745 237.957 96.8745 219.404C96.8745 201.972 110.152 187.641 127.145 185.973L127.109 185.81L167.775 183.269C162.269 178.026 158.54 170.935 157.585 162.99L106.953 165.654L106.89 165.495C105.805 165.6 104.706 165.654 103.593 165.654C85.0402 165.654 70 150.614 70 132.061C70 121.146 75.206 111.446 83.2705 105.31L83.2219 105.187L137.214 51.3978C143.344 43.2608 153.088 38 164.061 38C182.614 38 197.654 53.0402 197.654 71.5933Z" fill="white"/>
</svg>
